<svg xmlns="http://www.w3.org/2000/svg" xmlns:svg="http://www.w3.org/2000/svg" xmlns:xlink="http://www.w3.org/1999/xlink" version="1.0" height="990pt" width="1425pt" viewBox="20 332 1433 996" ><defs><style type="text/css">
            @font-face {
                font-family: 'noto_regular';
                src: url('https://app.creately.com/diagram/assets/fonts/noto/noto-regular.woff') format('woff'),
                     url('https://app.creately.com/diagram/assets/fonts/noto/noto-regular.woff2') format('woff2');
                font-weight: normal;
                font-style: normal;
            }
        p {
            margin: 0;
        }
        </style></defs><defs><style>
            span{ display: inline-block; }
        </style></defs><g id="2g9nldxdrm"><g transform="translate(220 515)"><rect x="0" y="0" width="100" height="50" fill="rgba(254,55,74,1)" stroke="#fe374a" stroke-width="2" stroke-linecap="round" stroke-linejoin="round"/></g><g transform="translate(249, 530.5) rotate(0, 21, 9.5)" width="42" height="19"><text text-decoration="none" x="1.5" fill="rgb(255, 232, 233)" font-size="10pt" font-family="Lato"  y="17">Admin</text><text text-decoration="none" x="40.5" fill="#4b4b4b" font-size="10pt" font-family="noto_regular"  y="17"></text></g></g><g id="18rtb2cv4z"><g transform="translate(290 385)"><ellipse cx="50" cy="25" rx="50" ry="25" fill="rgba(52,152,219,1)" stroke="#3498db" stroke-width="2" stroke-linecap="round" stroke-linejoin="round"/></g><g transform="translate(301, 400.5) rotate(0, 39, 9.5)" width="78" height="19"><text text-decoration="none" x="3.5" fill="rgb(255, 255, 255)" font-size="10pt" font-family="Lato"  y="17">admin_pass</text><text text-decoration="none" x="74.5" fill="#4b4b4b" font-size="10pt" font-family="noto_regular"  y="17"></text></g></g><g id="wlhp927z94"><g transform="translate(145 380)"><ellipse cx="50" cy="25" rx="50" ry="25" fill="rgba(52,152,219,1)" stroke="#3498db" stroke-width="2" stroke-linecap="round" stroke-linejoin="round"/></g><g transform="translate(147, 395.5) rotate(0, 48, 9.5)" width="96" height="19"><text text-decoration="none" x="4" fill="rgb(255, 255, 255)" font-size="10pt" font-family="Lato"  y="17">admin_L&#160;</text><text text-decoration="none" x="58" fill="rgb(255, 255, 255)" font-size="10pt" font-family="Lato"  y="17">name</text><text text-decoration="none" x="92" fill="#4b4b4b" font-size="10pt" font-family="noto_regular"  y="17"></text></g></g><g id="68p41xr1h2"><g transform="translate(40 440)"><ellipse cx="50" cy="25" rx="50" ry="25" fill="rgba(52,152,219,1)" stroke="#3498db" stroke-width="2" stroke-linecap="round" stroke-linejoin="round"/></g><g transform="translate(40, 455.5) rotate(0, 50, 9.5)" width="100" height="19"><text text-decoration="none" x="3.5" fill="rgb(255, 255, 255)" font-size="10pt" font-family="Lato"  y="17">admin_M&#160;</text><text text-decoration="none" x="62.5" fill="rgb(255, 255, 255)" font-size="10pt" font-family="Lato"  y="17">name</text><text text-decoration="none" x="96.5" fill="#4b4b4b" font-size="10pt" font-family="noto_regular"  y="17"></text></g></g><g id="2bi91fse4f"><g transform="translate(35 520)"><ellipse cx="50" cy="25" rx="50" ry="25" fill="rgba(52,152,219,1)" stroke="#3498db" stroke-width="2" stroke-linecap="round" stroke-linejoin="round"/></g><g transform="translate(37, 535.5) rotate(0, 48, 9.5)" width="96" height="19"><text text-decoration="none" x="4" fill="rgb(255, 255, 255)" font-size="10pt" font-family="Lato"  y="17">admin_F&#160;</text><text text-decoration="none" x="58" fill="rgb(255, 255, 255)" font-size="10pt" font-family="Lato"  y="17">name</text><text text-decoration="none" x="92" fill="#4b4b4b" font-size="10pt" font-family="noto_regular"  y="17"></text></g></g><g id="1wjdtif3oj"><g transform="translate(30 605)"><ellipse cx="50" cy="25" rx="50" ry="25" fill="rgba(52,152,219,1)" stroke="#3498db" stroke-width="2" stroke-linecap="round" stroke-linejoin="round"/></g><g transform="translate(50, 620.5) rotate(0, 30, 9.5)" width="60" height="19"><text text-decoration="none" x="2.5" fill="rgb(255, 255, 255)" font-size="10pt" font-family="Lato"  y="17">admin_id</text><text text-decoration="none" x="57.5" fill="#4b4b4b" font-size="10pt" font-family="noto_regular"  y="17"></text></g></g><g id="1gh2ta1dxh"><g><path d="M 270,515 L 325,435" fill="none" stroke="#898989" stroke-width="1.5" stroke-linecap="round" stroke-linejoin="round"/></g></g><g id="2h44b9kmby"><g><path d="M 270,515 L 195,430" fill="none" stroke="#898989" stroke-width="1.5" stroke-linecap="round" stroke-linejoin="round"/></g></g><g id="2cxkcuxz4u"><g><path d="M 270,515 L 140,465" fill="none" stroke="#898989" stroke-width="1.5" stroke-linecap="round" stroke-linejoin="round"/></g></g><g id="vftpovdlg7"><g><path d="M 220,540 L 135,545" fill="none" stroke="#898989" stroke-width="1.5" stroke-linecap="round" stroke-linejoin="round"/></g></g><g id="1row9vz6ex"><g><path d="M 220,540 L 130,630" fill="none" stroke="#898989" stroke-width="1.5" stroke-linecap="round" stroke-linejoin="round"/></g></g><g id="1dt8xqzv2v"><g transform="translate(205 770)"><path d="M 130,30 L 65,60 L 0,30 L 65,0 L 130,30 L 130,30 Z" fill="rgba(26,188,156,1)" stroke="#1abc9c" stroke-width="2" stroke-linecap="round" stroke-linejoin="round"/></g><g transform="translate(246.5, 790.5) rotate(0, 23.5, 9.5)" width="47" height="19"><text text-decoration="none" x="2.5" fill="rgb(242, 252, 249)" font-size="10pt" font-family="Lato"  y="17">Checks</text><text text-decoration="none" x="44.5" fill="#4b4b4b" font-size="10pt" font-family="noto_regular"  y="17"></text></g></g><g id="f0mj662oxn"><g transform="translate(220 1080)"><rect x="0" y="0" width="100" height="50" fill="rgba(254,55,74,1)" stroke="#fe374a" stroke-width="2" stroke-linecap="round" stroke-linejoin="round"/></g><g transform="translate(251.5, 1095.5) rotate(0, 18.5, 9.5)" width="37" height="19"><text text-decoration="none" x="0.5" fill="rgb(255, 232, 233)" font-size="10pt" font-family="Lato"  y="17">Room</text><text text-decoration="none" x="36.5" fill="#4b4b4b" font-size="10pt" font-family="noto_regular"  y="17"></text></g></g><g id="6qcvv3byne"><g transform="translate(25 1080)"><ellipse cx="50" cy="25" rx="50" ry="25" fill="rgba(52,152,219,1)" stroke="#3498db" stroke-width="2" stroke-linecap="round" stroke-linejoin="round"/></g><g transform="translate(47, 1095.5) rotate(0, 28, 9.5)" width="56" height="19"><text text-decoration="none" x="1.5" fill="rgb(255, 255, 255)" font-size="10pt" font-family="Lato"  y="17">Room_id</text><text text-decoration="none" x="54.5" fill="#4b4b4b" font-size="10pt" font-family="noto_regular"  y="17"></text></g></g><g id="2bb4wux6yf"><g transform="translate(65 1190)"><ellipse cx="50" cy="25" rx="50" ry="25" fill="rgba(52,152,219,1)" stroke="#3498db" stroke-width="2" stroke-linecap="round" stroke-linejoin="round"/></g><g transform="translate(78.5, 1205.5) rotate(0, 36.5, 9.5)" width="73" height="19"><text text-decoration="none" x="2" fill="rgb(255, 255, 255)" font-size="10pt" font-family="Lato"  y="17">Room_type</text><text text-decoration="none" x="71" fill="#4b4b4b" font-size="10pt" font-family="noto_regular"  y="17"></text></g></g><g id="1rxsnolpop"><g transform="translate(200 1255)"><ellipse cx="69.9999988079071" cy="25" rx="69.9999988079071" ry="25" fill="rgba(52,152,219,1)" stroke="#3498db" stroke-width="2" stroke-linecap="round" stroke-linejoin="round"/></g><g transform="translate(218.4999988079071, 1270.5) rotate(0, 51.5, 9.5)" width="103" height="19"><text text-decoration="none" x="3.5" fill="rgb(255, 255, 255)" font-size="10pt" font-family="Lato"  y="17">no_accomodate</text><text text-decoration="none" x="99.5" fill="#4b4b4b" font-size="10pt" font-family="noto_regular"  y="17"></text></g></g><g id="23boul2dz2"><g><path d="M 270,1130 L 270,1255" fill="none" stroke="#898989" stroke-width="1.5" stroke-linecap="round" stroke-linejoin="round"/></g></g><g id="1ssn6hany1"><g><path d="M 220,1105 L 145,1195" fill="none" stroke="#898989" stroke-width="1.5" stroke-linecap="round" stroke-linejoin="round"/></g></g><g id="qrooxm947n"><g><path d="M 220,1105 L 125,1105" fill="none" stroke="#898989" stroke-width="1.5" stroke-linecap="round" stroke-linejoin="round"/></g></g><g id="2pfxct515h"><g transform="translate(600 515)"><rect x="0" y="0" width="100" height="50" fill="rgba(254,55,74,1)" stroke="#fe374a" stroke-width="2" stroke-linecap="round" stroke-linejoin="round"/></g><g transform="translate(625.5, 530.5) rotate(0, 24.5, 9.5)" width="49" height="19"><text text-decoration="none" x="1" fill="rgb(255, 232, 233)" font-size="10pt" font-family="Lato"  y="17">student</text><text text-decoration="none" x="48" fill="#4b4b4b" font-size="10pt" font-family="noto_regular"  y="17"></text></g></g><g id="ngbntxrysr"><g><path d="M 270,770 L 270,565" fill="none" stroke="#898989" stroke-width="1.5" stroke-linecap="round" stroke-linejoin="round"/></g></g><g id="1fwpoiguyq"><g><path d="M 270,830 L 270,1080" fill="none" stroke="#898989" stroke-width="1.5" stroke-linecap="round" stroke-linejoin="round"/></g></g><g id="7vt2z4148n"><g transform="translate(420 1075)"><path d="M 130,30 L 65,60 L 0,30 L 65,0 L 130,30 L 130,30 Z" fill="rgba(26,188,156,1)" stroke="#1abc9c" stroke-width="2" stroke-linecap="round" stroke-linejoin="round"/></g><g transform="translate(473.5, 1095.5) rotate(0, 11.5, 9.5)" width="23" height="19"><text text-decoration="none" x="1" fill="rgb(242, 252, 249)" font-size="10pt" font-family="Lato"  y="17">has</text><text text-decoration="none" x="22" fill="#4b4b4b" font-size="10pt" font-family="noto_regular"  y="17"></text></g></g><g id="8pg8ewvq7d"><g transform="translate(670 1080)"><rect x="0" y="0" width="100" height="50" fill="rgba(254,55,74,1)" stroke="#fe374a" stroke-width="2" stroke-linecap="round" stroke-linejoin="round"/></g><g transform="translate(683.5, 1095.5) rotate(0, 36.5, 9.5)" width="73" height="19"><text text-decoration="none" x="2" fill="rgb(255, 232, 233)" font-size="10pt" font-family="Lato"  y="17">Room_type</text><text text-decoration="none" x="71" fill="#4b4b4b" font-size="10pt" font-family="noto_regular"  y="17"></text></g></g><g id="37tqb4iaip"><g transform="translate(500 375)"><ellipse cx="50" cy="25" rx="50" ry="25" fill="rgba(52,152,219,1)" stroke="#3498db" stroke-width="2" stroke-linecap="round" stroke-linejoin="round"/></g><g transform="translate(514, 390.5) rotate(0, 36, 9.5)" width="72" height="19"><text text-decoration="none" x="2.5" fill="rgb(255, 255, 255)" font-size="10pt" font-family="Lato"  y="17">stud_name</text><text text-decoration="none" x="69.5" fill="#4b4b4b" font-size="10pt" font-family="noto_regular"  y="17"></text></g></g><g id="1wqdpev8m9"><g transform="translate(600.2 362.7)"><ellipse cx="50" cy="25" rx="50" ry="25" fill="rgba(52,152,219,1)" stroke="#3498db" stroke-width="2" stroke-linecap="round" stroke-linejoin="round"/></g><g transform="translate(614.2, 378.2) rotate(0, 36, 9.5)" width="72" height="19"><text text-decoration="none" x="3.5" fill="rgb(255, 255, 255)" font-size="10pt" font-family="Lato"  y="17">stud_email</text><text text-decoration="none" x="68.5" fill="#4b4b4b" font-size="10pt" font-family="noto_regular"  y="17"></text></g></g><g id="230yic0q1e"><g transform="translate(705 365)"><ellipse cx="50" cy="25" rx="50" ry="25" fill="rgba(52,152,219,1)" stroke="#3498db" stroke-width="2" stroke-linecap="round" stroke-linejoin="round"/></g><g transform="translate(740.5, 380.5) rotate(0, 14.5, 9.5)" width="29" height="19"><text text-decoration="none" x="1" fill="rgb(255, 255, 255)" font-size="10pt" font-family="Lato"  y="17">DOB</text><text text-decoration="none" x="28" fill="#4b4b4b" font-size="10pt" font-family="noto_regular"  y="17"></text></g></g><g id="2g1e378bdd"><g transform="translate(440 430)"><ellipse cx="50" cy="25" rx="50" ry="25" fill="rgba(52,152,219,1)" stroke="#3498db" stroke-width="2" stroke-linecap="round" stroke-linejoin="round"/></g><g transform="translate(456, 445.5) rotate(0, 34, 9.5)" width="68" height="19"><text text-decoration="none" x="2" fill="rgb(255, 255, 255)" font-size="10pt" font-family="Lato"  y="17">student_id</text><text text-decoration="none" x="66" fill="#4b4b4b" font-size="10pt" font-family="noto_regular"  y="17"></text></g></g><g id="1nn5l486jy"><g transform="translate(780 405)"><ellipse cx="50" cy="25" rx="50" ry="25" fill="rgba(52,152,219,1)" stroke="#3498db" stroke-width="2" stroke-linecap="round" stroke-linejoin="round"/></g><g transform="translate(800, 420.5) rotate(0, 30, 9.5)" width="60" height="19"><text text-decoration="none" x="2.5" fill="rgb(255, 255, 255)" font-size="10pt" font-family="Lato"  y="17">join_date</text><text text-decoration="none" x="57.5" fill="#4b4b4b" font-size="10pt" font-family="noto_regular"  y="17"></text></g></g><g id="59cpx87lxp"><g><path d="M 650,515 L 540,455" fill="none" stroke="#898989" stroke-width="1.5" stroke-linecap="round" stroke-linejoin="round"/></g></g><g id="251w2dw0p9"><g><path d="M 650,515 L 550,435" fill="none" stroke="#898989" stroke-width="1.5" stroke-linecap="round" stroke-linejoin="round"/></g></g><g id="k1m000wov4"><g><path d="M 650,515 L 650.2,412.7" fill="none" stroke="#898989" stroke-width="1.5" stroke-linecap="round" stroke-linejoin="round"/></g></g><g id="2ju7rw9ea6"><g><path d="M 650,515 L 755,415" fill="none" stroke="#898989" stroke-width="1.5" stroke-linecap="round" stroke-linejoin="round"/></g></g><g id="8ks88s4uew"><g><path d="M 650,515 L 780,430" fill="none" stroke="#898989" stroke-width="1.5" stroke-linecap="round" stroke-linejoin="round"/></g></g><g id="1vjrq6nbnf"><g transform="translate(855 675)"><path d="M 130,30 L 65,60 L 0,30 L 65,0 L 130,30 L 130,30 Z" fill="rgba(26,188,156,1)" stroke="#1abc9c" stroke-width="2" stroke-linecap="round" stroke-linejoin="round"/></g><g transform="translate(891, 695.5) rotate(0, 29, 9.5)" width="58" height="19"><text text-decoration="none" x="1.5" fill="rgb(242, 252, 249)" font-size="10pt" font-family="Lato"  y="17">Confirms</text><text text-decoration="none" x="56.5" fill="#4b4b4b" font-size="10pt" font-family="noto_regular"  y="17"></text></g></g><g id="2eoje0g2n8"><g transform="translate(1150 525)"><rect x="0" y="0" width="100" height="50" fill="rgba(254,55,74,1)" stroke="#fe374a" stroke-width="2" stroke-linecap="round" stroke-linejoin="round"/></g><g transform="translate(1168.5, 540.5) rotate(0, 31.5, 9.5)" width="63" height="19"><text text-decoration="none" x="2" fill="rgb(255, 232, 233)" font-size="10pt" font-family="Lato"  y="17">Customer</text><text text-decoration="none" x="61" fill="#4b4b4b" font-size="10pt" font-family="noto_regular"  y="17"></text></g></g><g id="25bq0gz8os"><g><path d="M 700,540 L 777.5,540 L 777.5,622.5 L 777.5,705 L 855,705" fill="none" stroke="#898989" stroke-width="1.5" stroke-linecap="round" stroke-linejoin="round"/></g></g><g id="1gdzyfrqio"><g><path d="M 920,675 L 920,550 L 1150,550" fill="none" stroke="#898989" stroke-width="1.5" stroke-linecap="round" stroke-linejoin="round"/></g></g><g id="18hqb10azx"><g transform="translate(1065 385)"><ellipse cx="50" cy="25" rx="50" ry="25" fill="rgba(52,152,219,1)" stroke="#3498db" stroke-width="2" stroke-linecap="round" stroke-linejoin="round"/></g><g transform="translate(1074, 400.5) rotate(0, 41, 9.5)" width="82" height="19"><text text-decoration="none" x="3.5" fill="rgb(255, 255, 255)" font-size="10pt" font-family="Lato"  y="17">cust_F&#160;</text><text text-decoration="none" x="44.5" fill="rgb(255, 255, 255)" font-size="10pt" font-family="Lato"  y="17">name</text><text text-decoration="none" x="78.5" fill="#4b4b4b" font-size="10pt" font-family="noto_regular"  y="17"></text></g></g><g id="28bcz4y4ol"><g transform="translate(990 465)"><ellipse cx="50" cy="25" rx="50" ry="25" fill="rgba(52,152,219,1)" stroke="#3498db" stroke-width="2" stroke-linecap="round" stroke-linejoin="round"/></g><g transform="translate(1017, 480.5) rotate(0, 23, 9.5)" width="46" height="19"><text text-decoration="none" x="2" fill="rgb(255, 255, 255)" font-size="10pt" font-family="Lato"  y="17">cust_id</text><text text-decoration="none" x="44" fill="#4b4b4b" font-size="10pt" font-family="noto_regular"  y="17"></text></g></g><g id="97dqhjk2ag"><g transform="translate(1190 335)"><ellipse cx="50" cy="25" rx="50" ry="25" fill="rgba(52,152,219,1)" stroke="#3498db" stroke-width="2" stroke-linecap="round" stroke-linejoin="round"/></g><g transform="translate(1197, 350.5) rotate(0, 43, 9.5)" width="86" height="19"><text text-decoration="none" x="3" fill="rgb(255, 255, 255)" font-size="10pt" font-family="Lato"  y="17">cust_M&#160;</text><text text-decoration="none" x="49" fill="rgb(255, 255, 255)" font-size="10pt" font-family="Lato"  y="17">name</text><text text-decoration="none" x="83" fill="#4b4b4b" font-size="10pt" font-family="noto_regular"  y="17"></text></g></g><g id="477lmqdtk5"><g transform="translate(1320 380)"><ellipse cx="50" cy="25" rx="50" ry="25" fill="rgba(52,152,219,1)" stroke="#3498db" stroke-width="2" stroke-linecap="round" stroke-linejoin="round"/></g><g transform="translate(1329, 395.5) rotate(0, 41, 9.5)" width="82" height="19"><text text-decoration="none" x="3.5" fill="rgb(255, 255, 255)" font-size="10pt" font-family="Lato"  y="17">cust_L&#160;</text><text text-decoration="none" x="44.5" fill="rgb(255, 255, 255)" font-size="10pt" font-family="Lato"  y="17">name</text><text text-decoration="none" x="78.5" fill="#4b4b4b" font-size="10pt" font-family="noto_regular"  y="17"></text></g></g><g id="2dasulmai7"><g transform="translate(1335 470)"><ellipse cx="50" cy="25" rx="50" ry="25" fill="rgba(52,152,219,1)" stroke="#3498db" stroke-width="2" stroke-linecap="round" stroke-linejoin="round"/></g><g transform="translate(1342.5, 485.5) rotate(0, 42.5, 9.5)" width="85" height="19"><text text-decoration="none" x="3.5" fill="rgb(255, 255, 255)" font-size="10pt" font-family="Lato"  y="17">cust_address</text><text text-decoration="none" x="81.5" fill="#4b4b4b" font-size="10pt" font-family="noto_regular"  y="17"></text></g></g><g id="77eiop1y5m"><g transform="translate(1340 565)"><ellipse cx="50" cy="25" rx="50" ry="25" fill="rgba(52,152,219,1)" stroke="#3498db" stroke-width="2" stroke-linecap="round" stroke-linejoin="round"/></g><g transform="translate(1348, 580.5) rotate(0, 42, 9.5)" width="84" height="19"><text text-decoration="none" x="2.5" fill="rgb(255, 255, 255)" font-size="10pt" font-family="Lato"  y="17">cust_number</text><text text-decoration="none" x="81.5" fill="#4b4b4b" font-size="10pt" font-family="noto_regular"  y="17"></text></g></g><g id="1rr7fkvdij"><g><path d="M 1200,525 L 1090,490" fill="none" stroke="#898989" stroke-width="1.5" stroke-linecap="round" stroke-linejoin="round"/></g></g><g id="1x6uxcjny5"><g><path d="M 1200,525 L 1130,435" fill="none" stroke="#898989" stroke-width="1.5" stroke-linecap="round" stroke-linejoin="round"/></g></g><g id="6jhqx61fa3"><g><path d="M 1200,525 L 1240,385" fill="none" stroke="#898989" stroke-width="1.5" stroke-linecap="round" stroke-linejoin="round"/></g></g><g id="7rorcseszm"><g><path d="M 1200,525 L 1340,425" fill="none" stroke="#898989" stroke-width="1.5" stroke-linecap="round" stroke-linejoin="round"/></g></g><g id="5gepw52oen"><g><path d="M 1250,550 L 1335,495" fill="none" stroke="#898989" stroke-width="1.5" stroke-linecap="round" stroke-linejoin="round"/></g></g><g id="187bbou1cw"><g><path d="M 1250,550 L 1340,590" fill="none" stroke="#898989" stroke-width="1.5" stroke-linecap="round" stroke-linejoin="round"/></g></g><g id="1zaecte0bv"><g transform="translate(1135 750)"><path d="M 130,30 L 65,60 L 0,30 L 65,0 L 130,30 L 130,30 Z" fill="rgba(26,188,156,1)" stroke="#1abc9c" stroke-width="2" stroke-linecap="round" stroke-linejoin="round"/></g><g transform="translate(1175, 770.5) rotate(0, 25, 9.5)" width="50" height="19"><text text-decoration="none" x="2.5" fill="rgb(242, 252, 249)" font-size="10pt" font-family="Lato"  y="17">Creates</text><text text-decoration="none" x="47.5" fill="#4b4b4b" font-size="10pt" font-family="noto_regular"  y="17"></text></g></g><g id="4r7qtklk12"><g transform="translate(1150 970)"><rect x="0" y="0" width="100" height="50" fill="rgba(254,55,74,1)" stroke="#fe374a" stroke-width="2" stroke-linecap="round" stroke-linejoin="round"/></g><g transform="translate(1163, 985.5) rotate(0, 37, 9.5)" width="74" height="19"><text text-decoration="none" x="2" fill="rgb(255, 232, 233)" font-size="10pt" font-family="Lato"  y="17">Transaction</text><text text-decoration="none" x="72" fill="#4b4b4b" font-size="10pt" font-family="noto_regular"  y="17"></text></g></g><g id="2ckfmpn3pf"><g transform="translate(1345 770)"><ellipse cx="50" cy="25" rx="50" ry="25" fill="rgba(52,152,219,1)" stroke="#3498db" stroke-width="2" stroke-linecap="round" stroke-linejoin="round"/></g><g transform="translate(1367, 785.5) rotate(0, 28, 9.5)" width="56" height="19"><text text-decoration="none" x="1.5" fill="rgb(255, 255, 255)" font-size="10pt" font-family="Lato"  y="17">trans_no</text><text text-decoration="none" x="54.5" fill="#4b4b4b" font-size="10pt" font-family="noto_regular"  y="17"></text></g></g><g id="20xbzsmai7"><g transform="translate(1350 860)"><ellipse cx="50" cy="25" rx="50" ry="25" fill="rgba(52,152,219,1)" stroke="#3498db" stroke-width="2" stroke-linecap="round" stroke-linejoin="round"/></g><g transform="translate(1377, 875.5) rotate(0, 23, 9.5)" width="46" height="19"><text text-decoration="none" x="2" fill="rgb(255, 255, 255)" font-size="10pt" font-family="Lato"  y="17">cust_id</text><text text-decoration="none" x="44" fill="#4b4b4b" font-size="10pt" font-family="noto_regular"  y="17"></text></g></g><g id="2psump0mfo"><g transform="translate(1345 950)"><ellipse cx="50" cy="25" rx="50" ry="25" fill="rgba(52,152,219,1)" stroke="#3498db" stroke-width="2" stroke-linecap="round" stroke-linejoin="round"/></g><g transform="translate(1375.5, 965.5) rotate(0, 19.5, 9.5)" width="39" height="19"><text text-decoration="none" x="2" fill="rgb(255, 255, 255)" font-size="10pt" font-family="Lato"  y="17">rec_id</text><text text-decoration="none" x="37" fill="#4b4b4b" font-size="10pt" font-family="noto_regular"  y="17"></text></g></g><g id="5s23ea5n9z"><g transform="translate(1345 1030)"><ellipse cx="50" cy="25" rx="50" ry="25" fill="rgba(52,152,219,1)" stroke="#3498db" stroke-width="2" stroke-linecap="round" stroke-linejoin="round"/></g><g transform="translate(1362, 1045.5) rotate(0, 33, 9.5)" width="66" height="19"><text text-decoration="none" x="2.5" fill="rgb(255, 255, 255)" font-size="10pt" font-family="Lato"  y="17">start_date</text><text text-decoration="none" x="63.5" fill="#4b4b4b" font-size="10pt" font-family="noto_regular"  y="17"></text></g></g><g id="2bvu4dzp56"><g transform="translate(1345 1110)"><ellipse cx="50" cy="25" rx="50" ry="25" fill="rgba(52,152,219,1)" stroke="#3498db" stroke-width="2" stroke-linecap="round" stroke-linejoin="round"/></g><g transform="translate(1365, 1125.5) rotate(0, 30, 9.5)" width="60" height="19"><text text-decoration="none" x="2" fill="rgb(255, 255, 255)" font-size="10pt" font-family="Lato"  y="17">end_date</text><text text-decoration="none" x="58" fill="#4b4b4b" font-size="10pt" font-family="noto_regular"  y="17"></text></g></g><g id="1o912amjmz"><g transform="translate(1195 1140)"><ellipse cx="57.499998807907104" cy="25" rx="57.499998807907104" ry="25" fill="rgba(52,152,219,1)" stroke="#3498db" stroke-width="2" stroke-linecap="round" stroke-linejoin="round"/></g><g transform="translate(1204.999998807907, 1155.5) rotate(0, 47.5, 9.5)" width="95" height="19"><text text-decoration="none" x="3.5" fill="rgb(255, 255, 255)" font-size="10pt" font-family="Lato"  y="17">total_payment</text><text text-decoration="none" x="91.5" fill="#4b4b4b" font-size="10pt" font-family="noto_regular"  y="17"></text></g></g><g id="3paoje8qf9"><g><path d="M 1250,995 L 1400,910" fill="none" stroke="#898989" stroke-width="1.5" stroke-linecap="round" stroke-linejoin="round"/></g></g><g id="1eubuav5cm"><g><path d="M 1250,995 L 1345,975" fill="none" stroke="#898989" stroke-width="1.5" stroke-linecap="round" stroke-linejoin="round"/></g></g><g id="8r3paqrgcm"><g><path d="M 1200,1020 L 1345,1055" fill="none" stroke="#898989" stroke-width="1.5" stroke-linecap="round" stroke-linejoin="round"/></g></g><g id="2l503w3abw"><g><path d="M 1200,1020 L 1345,1135" fill="none" stroke="#898989" stroke-width="1.5" stroke-linecap="round" stroke-linejoin="round"/></g></g><g id="5by19gh5p5"><g><path d="M 1200,1020 L 1250,1140" fill="none" stroke="#898989" stroke-width="1.5" stroke-linecap="round" stroke-linejoin="round"/></g></g><g id="1pvh7nsacf"><g><path d="M 1200,810 L 1200,970" fill="none" stroke="#898989" stroke-width="1.5" stroke-linecap="round" stroke-linejoin="round"/></g></g><g id="1uuahn3oht"><g><path d="M 1250,995 L 1345,795" fill="none" stroke="#898989" stroke-width="1.5" stroke-linecap="round" stroke-linejoin="round"/></g></g><g id="2fqdqj238d"><g transform="translate(945 1075)"><path d="M 130,30 L 65,60 L 0,30 L 65,0 L 130,30 L 130,30 Z" fill="rgba(26,188,156,1)" stroke="#1abc9c" stroke-width="2" stroke-linecap="round" stroke-linejoin="round"/></g><g transform="translate(998.5, 1095.5) rotate(0, 11.5, 9.5)" width="23" height="19"><text text-decoration="none" x="1" fill="rgb(242, 252, 249)" font-size="10pt" font-family="Lato"  y="17">has</text><text text-decoration="none" x="22" fill="#4b4b4b" font-size="10pt" font-family="noto_regular"  y="17"></text></g></g><g id="1bais7xe3i"><g><path d="M 420,1105 L 320,1105" fill="none" stroke="#898989" stroke-width="1.5" stroke-linecap="round" stroke-linejoin="round"/></g></g><g id="76x5apc635"><g><path d="M 550,1105 L 670,1105" fill="none" stroke="#898989" stroke-width="1.5" stroke-linecap="round" stroke-linejoin="round"/></g></g><g id="3htybuiu4j"><g transform="translate(665 1255)"><ellipse cx="50" cy="25" rx="50" ry="25" fill="rgba(52,152,219,1)" stroke="#3498db" stroke-width="2" stroke-linecap="round" stroke-linejoin="round"/></g><g transform="translate(676, 1270.5) rotate(0, 39, 9.5)" width="78" height="19"><text text-decoration="none" x="2.5" fill="rgb(255, 255, 255)" font-size="10pt" font-family="Lato"  y="17">room_name</text><text text-decoration="none" x="75.5" fill="#4b4b4b" font-size="10pt" font-family="noto_regular"  y="17"></text></g></g><g id="6g1gs1jcqu"><g transform="translate(525 1200)"><ellipse cx="50" cy="25" rx="50" ry="25" fill="rgba(52,152,219,1)" stroke="#3498db" stroke-width="2" stroke-linecap="round" stroke-linejoin="round"/></g><g transform="translate(539, 1215.5) rotate(0, 36, 9.5)" width="72" height="19"><text text-decoration="none" x="2" fill="rgb(255, 255, 255)" font-size="10pt" font-family="Lato"  y="17">room_code</text><text text-decoration="none" x="70" fill="#4b4b4b" font-size="10pt" font-family="noto_regular"  y="17"></text></g></g><g id="212yfqdgo0"><g transform="translate(805 1200)"><ellipse cx="50" cy="25" rx="50" ry="25" fill="rgba(52,152,219,1)" stroke="#3498db" stroke-width="2" stroke-linecap="round" stroke-linejoin="round"/></g><g transform="translate(830, 1215.5) rotate(0, 25, 9.5)" width="50" height="19"><text text-decoration="none" x="1" fill="rgb(255, 255, 255)" font-size="10pt" font-family="Lato"  y="17">amount</text><text text-decoration="none" x="49" fill="#4b4b4b" font-size="10pt" font-family="noto_regular"  y="17"></text></g></g><g id="28omnlp2gt"><g><path d="M 720,1130 L 575,1200" fill="none" stroke="#898989" stroke-width="1.5" stroke-linecap="round" stroke-linejoin="round"/></g></g><g id="2e4snk39if"><g><path d="M 720,1130 L 715,1255" fill="none" stroke="#898989" stroke-width="1.5" stroke-linecap="round" stroke-linejoin="round"/></g></g><g id="132x82ivgv"><g><path d="M 720,1130 L 805,1225" fill="none" stroke="#898989" stroke-width="1.5" stroke-linecap="round" stroke-linejoin="round"/></g></g><g id="16jddot3va"><g><path d="M 1010,1075 L 1010,995 L 1150,995" fill="none" stroke="#898989" stroke-width="1.5" stroke-linecap="round" stroke-linejoin="round"/></g></g><g id="2kw8w6jyum"><g transform="translate(950 1275)"><rect x="0" y="0" width="120.00000476837158" height="50" fill="rgba(254,55,74,1)" stroke="#fe374a" stroke-width="2" stroke-linecap="round" stroke-linejoin="round"/></g><g transform="translate(963.5000023841858, 1290.5) rotate(0, 46.5, 9.5)" width="93" height="19"><text text-decoration="none" x="3" fill="rgb(255, 232, 233)" font-size="10pt" font-family="Lato"  y="17">Payment_type</text><text text-decoration="none" x="90" fill="#4b4b4b" font-size="10pt" font-family="noto_regular"  y="17"></text></g></g><g id="282dby3bh0"><g><path d="M 1010,1135 L 1010,1275" fill="none" stroke="#898989" stroke-width="1.5" stroke-linecap="round" stroke-linejoin="round"/></g></g><g id="1jfsoc7pew"><g transform="translate(465 785)"><path d="M 130,30 L 65,60 L 0,30 L 65,0 L 130,30 L 130,30 Z" fill="rgba(26,188,156,1)" stroke="#1abc9c" stroke-width="2" stroke-linecap="round" stroke-linejoin="round"/></g><g transform="translate(506.5, 805.5) rotate(0, 23.5, 9.5)" width="47" height="19"><text text-decoration="none" x="2.5" fill="rgb(242, 252, 249)" font-size="10pt" font-family="Lato"  y="17">Checks</text><text text-decoration="none" x="44.5" fill="#4b4b4b" font-size="10pt" font-family="noto_regular"  y="17"></text></g></g><g id="aavfcyykiq"><g><path d="M 530,845 L 530,962.5 L 415,962.5 L 300,962.5 L 300,1080" fill="none" stroke="#898989" stroke-width="1.5" stroke-linecap="round" stroke-linejoin="round"/></g></g><g id="3i5bw4gmjn"><g><path d="M 530,785 L 530,675 L 590,675 L 650,675 L 650,565" fill="none" stroke="#898989" stroke-width="1.5" stroke-linecap="round" stroke-linejoin="round"/></g></g><g id="6tyvayjpy2"><g><path d="M 1200,750 L 1200,575" fill="none" stroke="#898989" stroke-width="1.5" stroke-linecap="round" stroke-linejoin="round"/></g></g><g id="16j2nvr9ch"><g transform="translate(1045 1140)"><ellipse cx="64.99999761581421" cy="25" rx="64.99999761581421" ry="25" fill="rgba(52,152,219,1)" stroke="#3498db" stroke-width="2" stroke-linecap="round" stroke-linejoin="round"/></g><g transform="translate(1062.9999976158142, 1155.5) rotate(0, 47, 9.5)" width="94" height="19"><text text-decoration="none" x="3.5" fill="rgb(255, 255, 255)" font-size="10pt" font-family="Lato"  y="17">payment_type</text><text text-decoration="none" x="90.5" fill="#4b4b4b" font-size="10pt" font-family="noto_regular"  y="17"></text></g></g><g id="1efybcw23i"><g><path d="M 1200,1020 L 1110,1140" fill="none" stroke="#898989" stroke-width="1.5" stroke-linecap="round" stroke-linejoin="round"/></g></g><g id="1jqzuo6jyg"><g transform="translate(425 485)"><ellipse cx="50" cy="25" rx="50" ry="25" fill="rgba(52,152,219,1)" stroke="#3498db" stroke-width="2" stroke-linecap="round" stroke-linejoin="round"/></g><g transform="translate(456.5, 500.5) rotate(0, 18.5, 9.5)" width="37" height="19"><text text-decoration="none" x="1.5" fill="rgb(255, 255, 255)" font-size="10pt" font-family="Lato"  y="17">Batch</text><text text-decoration="none" x="35.5" fill="#4b4b4b" font-size="10pt" font-family="noto_regular"  y="17"></text></g></g><g id="vjqlblvoe7"><g transform="translate(420 540)"><ellipse cx="50" cy="25" rx="50" ry="25" fill="rgba(52,152,219,1)" stroke="#3498db" stroke-width="2" stroke-linecap="round" stroke-linejoin="round"/></g><g transform="translate(437, 555.5) rotate(0, 33, 9.5)" width="66" height="19"><text text-decoration="none" x="1.5" fill="rgb(255, 255, 255)" font-size="10pt" font-family="Lato"  y="17">Institution</text><text text-decoration="none" x="64.5" fill="#4b4b4b" font-size="10pt" font-family="noto_regular"  y="17"></text></g></g><g id="8ljal7q951"><g transform="translate(795 465)"><ellipse cx="50" cy="25" rx="50" ry="25" fill="rgba(52,152,219,1)" stroke="#3498db" stroke-width="2" stroke-linecap="round" stroke-linejoin="round"/></g><g transform="translate(823.5, 480.5) rotate(0, 21.5, 9.5)" width="43" height="19"><text text-decoration="none" x="1.5" fill="rgb(255, 255, 255)" font-size="10pt" font-family="Lato"  y="17">course</text><text text-decoration="none" x="41.5" fill="#4b4b4b" font-size="10pt" font-family="noto_regular"  y="17"></text></g></g><g id="5wk0sweteu"><g transform="translate(425 595)"><ellipse cx="50" cy="25" rx="50" ry="25" fill="rgba(52,152,219,1)" stroke="#3498db" stroke-width="2" stroke-linecap="round" stroke-linejoin="round"/></g><g transform="translate(460, 610.5) rotate(0, 15, 9.5)" width="30" height="19"><text text-decoration="none" x="1.5" fill="rgb(255, 255, 255)" font-size="10pt" font-family="Lato"  y="17">pass</text><text text-decoration="none" x="28.5" fill="#4b4b4b" font-size="10pt" font-family="noto_regular"  y="17"></text></g></g><g id="2if3n70fd9"><g><path d="M 523.25,511.8 L 595,530" fill="none" stroke="#a0a0a0" stroke-width="1.5" stroke-linecap="round" stroke-linejoin="round"/></g></g><g id="1j3kh1de2x"><g><path d="M 605,540 L 520,560" fill="none" stroke="#a0a0a0" stroke-width="1.5" stroke-linecap="round" stroke-linejoin="round"/></g></g><g id="blo5tlrce7"><g><path d="M 600,565 L 525,615" fill="none" stroke="#a0a0a0" stroke-width="1.5" stroke-linecap="round" stroke-linejoin="round"/></g></g><g id="2ao6pcslx9"><g><path d="M 695.65,517 L 695.65,517" fill="none" stroke="#a0a0a0" stroke-width="1.5" stroke-linecap="round" stroke-linejoin="round"/></g></g></svg>